<?xml version="1.0" standalone="no"?>
<!DOCTYPE svg PUBLIC "-//W3C//DTD SVG 20010904//EN"
 "http://www.w3.org/TR/2001/REC-SVG-20010904/DTD/svg10.dtd">
<svg version="1.0" xmlns="http://www.w3.org/2000/svg"
 width="1000.000000pt" height="1000.000000pt" viewBox="0 0 1000.000000 1000.000000"
 preserveAspectRatio="xMidYMid meet">

<g transform="translate(0.000000,1000.000000) scale(0.100000,-0.100000)"
fill="#000000" stroke="none">
<path d="M4500 7354 c-26 -8 -92 -15 -155 -17 -103 -2 -114 -4 -179 -37 -123
-61 -273 -233 -332 -379 -30 -75 -57 -214 -50 -255 6 -32 5 -34 -31 -40 -21
-3 -96 -9 -168 -12 -134 -6 -195 -19 -277 -60 -144 -72 -221 -217 -222 -415
-1 -82 2 -100 18 -118 23 -25 53 -27 84 -5 19 13 22 24 22 92 0 81 26 194 56
241 33 52 101 98 179 121 22 6 110 15 195 20 248 14 346 56 510 220 105 104
180 211 258 366 29 57 64 113 82 127 57 49 143 46 234 -8 22 -13 119 -85 214
-159 96 -74 199 -149 230 -167 31 -18 96 -58 143 -90 148 -101 288 -142 371
-110 16 6 57 37 92 70 83 77 125 91 201 67 92 -29 211 -131 270 -231 87 -146
200 -521 225 -744 24 -209 122 -345 283 -391 189 -55 236 -99 216 -206 -44
-240 -271 -654 -503 -918 -106 -120 -141 -173 -151 -228 -10 -54 22 -118 83
-165 54 -41 62 -56 62 -121 0 -73 -29 -111 -110 -141 -19 -8 -98 -44 -175 -82
-167 -81 -351 -145 -465 -161 -64 -9 -112 -9 -214 1 -246 24 -342 -17 -307
-132 21 -72 23 -94 12 -130 -22 -66 -86 -76 -205 -33 -74 28 -85 35 -239 153
-230 177 -434 243 -752 243 -180 0 -261 11 -323 42 -67 33 -92 75 -92 155 0
158 -68 340 -164 439 -57 59 -98 70 -129 36 -30 -33 -21 -73 24 -117 84 -81
128 -189 135 -335 6 -110 22 -165 60 -215 46 -61 147 -110 254 -123 l55 -7 6
-40 c17 -124 133 -220 329 -274 139 -38 267 -53 514 -58 132 -2 248 -9 258
-14 42 -23 117 -39 178 -39 118 1 186 52 217 161 9 33 21 58 27 56 14 -5 12
-32 -9 -87 -10 -27 -14 -57 -10 -76 7 -42 64 -91 112 -99 21 -3 46 -8 57 -10
33 -7 199 16 305 41 485 118 936 387 1238 739 135 156 238 314 259 395 30 116
6 231 -61 300 l-35 35 65 130 c110 221 172 432 240 814 34 191 40 274 26 354
-33 192 -138 292 -319 304 l-80 6 -17 71 c-76 313 -318 732 -564 977 -124 123
-183 154 -291 154 -63 -1 -90 -7 -167 -38 -111 -45 -160 -47 -223 -12 -262
147 -399 182 -663 172 -150 -6 -265 -26 -347 -60 -32 -14 -37 -13 -85 14 -57
32 -152 59 -205 58 -19 0 -55 -7 -80 -15z m965 -143 c50 -10 124 -32 166 -48
77 -30 213 -114 283 -176 l40 -34 -58 -7 c-74 -8 -139 -40 -195 -94 -72 -69
-81 -73 -126 -61 -52 15 -129 53 -185 94 -25 17 -79 52 -120 76 -41 24 -91 55
-110 69 -31 22 -172 132 -194 151 -5 4 11 13 34 19 123 33 334 38 465 11z
m-1176 -83 c-95 -188 -231 -357 -339 -421 l-30 -18 0 34 c0 157 187 419 337
473 75 26 77 22 32 -68z m2058 -43 c138 -69 401 -418 545 -722 94 -200 149
-426 151 -628 2 -110 -15 -239 -32 -250 -4 -2 -34 9 -66 25 -33 16 -90 36
-127 46 -135 33 -198 122 -224 321 -42 319 -193 740 -312 869 -26 29 -64 78
-84 110 -20 33 -59 86 -87 118 -28 33 -49 61 -48 62 11 11 187 73 208 74 14 0
48 -11 76 -25z m962 -1213 c72 -37 120 -169 105 -288 -11 -86 -75 -447 -90
-509 -76 -302 -220 -605 -464 -970 -120 -179 -177 -239 -247 -260 -19 -5 -23
-1 -29 32 -10 58 -27 84 -87 135 -38 33 -54 53 -51 65 5 17 44 67 167 210 170
197 359 532 446 789 35 101 41 133 41 201 0 63 5 92 24 134 42 98 51 154 50
328 l-1 163 50 -5 c27 -4 66 -15 86 -25z m-141 -1599 c33 -86 21 -155 -45
-256 -166 -258 -392 -478 -663 -647 -273 -171 -703 -320 -920 -320 -39 0 -70
3 -68 8 46 105 46 149 1 202 l-26 31 99 -7 c108 -7 213 5 333 37 96 27 277
100 366 148 38 21 103 51 143 67 81 31 151 85 176 137 13 28 23 36 56 41 68
11 132 47 193 108 50 51 216 290 299 432 15 25 32 46 37 46 5 0 13 -12 19 -27z
m-2907 -904 c53 -10 129 -32 168 -48 74 -30 195 -102 246 -146 l30 -26 -115 6
c-245 13 -396 41 -507 95 -69 34 -123 89 -123 125 l0 24 103 -5 c56 -3 145
-15 198 -25z"/>
<path d="M2554 5731 c-63 -39 -69 -67 -72 -355 -2 -143 -1 -270 2 -283 9 -34
33 -40 131 -34 l90 6 5 123 c4 94 9 125 20 132 8 6 48 9 89 8 l75 -3 74 -85
c42 -47 96 -107 122 -135 l47 -50 131 3 c76 2 132 7 132 13 0 5 -51 64 -114
132 l-114 122 62 6 c118 12 126 26 126 213 l0 136 -29 32 -29 33 -359 3 c-337
2 -360 1 -389 -17z m566 -176 c11 -30 4 -52 -21 -65 -20 -12 -348 -13 -365 -2
-18 12 -26 50 -14 72 10 19 20 20 201 20 l189 0 10 -25z"/>
<path d="M3542 5730 c-20 -13 -41 -38 -53 -66 -19 -41 -20 -63 -17 -282 3
-214 5 -240 22 -269 11 -18 31 -37 45 -43 17 -7 159 -9 416 -8 l390 3 3 60 c2
32 1 69 -3 82 l-5 23 -308 0 c-323 0 -332 1 -332 44 1 51 -2 51 332 56 l313 5
3 49 c2 27 1 60 -3 73 l-5 23 -304 0 c-264 0 -307 2 -320 16 -19 18 -20 38 -6
65 10 18 24 19 313 19 222 0 306 3 315 12 12 12 17 114 6 142 -5 14 -49 16
-388 16 -365 0 -382 -1 -414 -20z"/>
<path d="M4532 5730 c-19 -12 -41 -38 -52 -63 -18 -38 -20 -67 -20 -312 0
-148 4 -276 8 -283 6 -9 36 -12 113 -10 l104 3 3 119 c1 67 7 126 14 133 7 9
36 13 87 13 l76 0 82 -93 c44 -50 98 -111 118 -134 l37 -43 134 0 c115 0 134
2 134 16 0 8 -48 65 -107 125 -60 61 -109 115 -111 120 -2 5 19 9 48 9 56 0
104 20 120 49 5 11 10 83 10 161 0 78 -5 150 -10 161 -25 46 -47 49 -412 49
-326 0 -345 -1 -376 -20z m556 -162 c17 -17 15 -48 -5 -70 -14 -16 -34 -18
-193 -18 -189 0 -200 3 -200 50 0 47 11 50 205 50 127 0 185 -4 193 -12z"/>
<path d="M5475 5725 l-25 -24 0 -291 c0 -287 3 -322 34 -342 13 -9 516 -11
516 -2 0 9 -99 125 -124 146 -17 14 -41 18 -118 18 l-96 0 -13 37 c-12 38 -8
267 5 281 4 4 17 -6 29 -23 18 -24 172 -202 369 -424 l38 -43 132 1 c73 1 134
4 136 6 8 8 -26 52 -125 161 -54 60 -164 183 -244 274 -210 237 -229 250 -389
250 -94 0 -103 -2 -125 -25z"/>
<path d="M2578 4928 c-3 -40 -5 -43 -35 -46 -41 -4 -43 -22 -3 -22 39 0 39
-16 0 -98 -32 -67 -35 -82 -21 -82 5 0 20 24 34 53 l26 52 0 -102 c1 -62 5
-103 11 -103 6 0 10 43 10 110 0 61 4 110 8 110 4 0 16 -14 26 -31 13 -23 21
-28 27 -18 5 8 -3 26 -22 50 -36 45 -37 59 -4 59 35 0 31 16 -6 24 -28 5 -30
9 -27 43 2 22 -2 38 -9 40 -8 3 -13 -11 -15 -39z"/>
<path d="M5356 4962 c-3 -5 -3 -17 0 -26 5 -14 -5 -16 -75 -16 l-81 0 0 -30
c0 -34 15 -40 23 -10 5 19 14 20 152 20 138 0 147 -1 152 -20 8 -30 23 -24 23
10 l0 30 -80 0 c-44 0 -80 4 -80 8 0 17 -27 45 -34 34z"/>
<path d="M5680 4920 c0 -43 -3 -50 -20 -50 -11 0 -20 -7 -20 -15 0 -8 9 -15
20 -15 19 0 20 -7 20 -130 0 -109 2 -130 15 -130 13 0 15 21 15 130 0 123 1
130 20 130 11 0 20 7 20 15 0 8 -9 15 -20 15 -17 0 -20 7 -20 50 0 38 -4 50
-15 50 -11 0 -15 -12 -15 -50z"/>
<path d="M3570 4917 c0 -108 -59 -236 -132 -285 -26 -17 -36 -28 -29 -35 28
-28 118 65 156 160 19 46 25 54 30 38 22 -66 62 -129 102 -165 26 -22 51 -39
57 -37 21 7 14 23 -19 45 -72 46 -135 176 -135 278 0 32 -4 44 -15 44 -11 0
-15 -11 -15 -43z"/>
<path d="M4358 4943 c-50 -15 -69 -40 -22 -29 24 6 25 5 22 -31 -3 -33 -7 -38
-30 -41 -35 -4 -37 -22 -3 -22 32 0 31 -12 -4 -81 -16 -31 -25 -62 -22 -68 4
-6 18 10 32 37 l24 47 3 -87 c1 -49 7 -88 12 -88 5 0 11 44 12 98 3 91 4 95
17 70 8 -16 18 -28 23 -28 15 0 8 23 -17 56 -14 18 -25 35 -25 38 0 3 11 6 25
6 31 0 33 17 3 22 -19 2 -24 10 -26 41 -3 32 0 39 17 44 12 3 21 12 21 19 0
16 -1 16 -62 -3z"/>
<path d="M5848 4923 c-3 -36 -5 -38 -37 -39 -19 0 -36 -5 -39 -12 -2 -8 8 -12
31 -12 18 0 36 -2 39 -5 9 -10 -13 -117 -32 -155 -10 -20 -31 -52 -46 -69 -18
-22 -23 -36 -17 -42 7 -7 19 0 37 22 42 50 65 101 77 179 l12 71 31 -3 31 -3
-4 -100 c-4 -126 -11 -145 -51 -145 -16 0 -30 -4 -30 -10 0 -18 78 -12 89 8 5
9 12 75 16 145 l8 127 -47 0 -46 0 0 40 c0 51 -18 53 -22 3z"/>
<path d="M6248 4936 c-16 -22 -123 -99 -150 -108 -6 -2 -8 -10 -4 -16 5 -9 15
-8 39 4 21 12 32 13 35 5 5 -14 202 -16 202 -1 0 6 -38 10 -95 10 -52 0 -95 3
-95 8 1 4 22 23 48 43 l47 37 40 -35 c51 -45 113 -76 133 -68 12 4 -2 16 -48
41 -73 40 -110 71 -110 91 0 21 -23 15 -42 -11z"/>
<path d="M2990 4895 l0 -55 60 0 c63 0 68 -4 46 -32 -10 -14 -28 -18 -75 -18
-34 0 -61 -4 -61 -10 0 -5 20 -10 45 -10 25 0 45 -4 45 -8 0 -5 -23 -21 -50
-36 -28 -15 -48 -32 -44 -37 3 -6 12 -8 20 -5 11 4 14 -7 14 -49 0 -42 3 -55
15 -55 8 0 15 5 15 11 0 8 16 10 50 6 l50 -6 0 59 0 60 -45 0 -46 0 34 30 c47
41 99 41 147 0 l34 -30 -42 0 -42 0 0 -65 c0 -51 3 -65 15 -65 8 0 15 5 15 11
0 8 16 10 50 6 l50 -6 0 50 c0 41 3 49 16 47 36 -6 22 18 -20 35 -25 10 -50
25 -57 33 -10 12 -3 14 45 14 31 0 56 5 56 10 0 6 -14 10 -30 10 -17 0 -36 5
-43 10 -7 6 -21 17 -32 25 -18 13 -16 14 28 15 l47 0 0 55 0 55 -70 0 -70 0 0
-55 c0 -48 2 -55 20 -55 11 0 20 -5 20 -11 0 -7 8 -18 18 -25 15 -12 9 -13
-41 -14 -54 0 -57 1 -48 19 8 14 7 20 -4 25 -11 4 -15 21 -15 61 l0 55 -60 0
-60 0 0 -55z m98 -2 c3 -32 2 -33 -37 -33 -40 0 -41 1 -41 36 0 35 1 35 38 32
34 -3 37 -6 40 -35z m182 2 c0 -34 -1 -35 -40 -35 -39 0 -40 1 -40 35 0 34 1
35 40 35 39 0 40 -1 40 -35z m-180 -240 c0 -33 -2 -35 -35 -35 -33 0 -35 2
-35 35 0 33 2 35 35 35 33 0 35 -2 35 -35z m178 -2 c3 -32 2 -33 -37 -33 -40
0 -41 1 -41 36 0 35 1 35 38 32 34 -3 37 -6 40 -35z"/>
<path d="M4460 4890 l0 -60 95 0 95 0 0 60 0 60 -95 0 -95 0 0 -60z m160 0 l0
-40 -70 0 -70 0 0 40 0 40 70 0 70 0 0 -40z"/>
<path d="M2697 4824 c-5 -98 -9 -124 -32 -170 -27 -54 -28 -73 -5 -59 31 19
53 100 58 212 l5 113 38 0 39 0 0 -149 c0 -82 3 -156 6 -165 8 -21 74 -22 74
-2 0 7 3 28 6 45 4 19 2 31 -4 31 -6 0 -12 -15 -14 -32 -2 -22 -9 -34 -20 -36
-17 -3 -18 10 -18 162 l0 166 -64 0 -63 0 -6 -116z"/>
<path d="M4740 4930 c0 -5 14 -10 30 -10 17 0 30 -2 30 -4 0 -17 -43 -136 -50
-141 -13 -8 -13 -45 -1 -45 5 0 12 6 14 13 3 6 6 -23 6 -65 1 -74 12 -102 24
-58 4 16 14 20 46 20 l41 0 0 85 0 85 -40 0 c-44 0 -45 2 -29 66 11 41 14 44
45 44 19 0 34 5 34 10 0 6 -32 10 -75 10 -43 0 -75 -4 -75 -10z m120 -206 l0
-65 -32 3 c-33 3 -33 3 -36 66 l-3 62 36 0 35 0 0 -66z"/>
<path d="M4920 4930 c0 -5 7 -10 15 -10 12 0 15 -14 15 -65 0 -63 -1 -65 -25
-65 -31 0 -33 -17 -2 -22 20 -3 22 -8 20 -51 -1 -28 -10 -62 -22 -83 -25 -42
-25 -44 -7 -44 19 0 47 64 55 124 6 50 6 51 41 51 l35 0 3 -87 c1 -49 7 -88
12 -88 5 0 11 39 12 88 3 82 4 87 26 90 12 2 22 7 22 12 0 5 -10 10 -22 12
-20 3 -23 10 -26 61 -3 52 -1 59 17 64 48 12 14 23 -74 23 -57 0 -95 -4 -95
-10z m130 -76 l0 -65 -37 3 c-38 3 -38 3 -41 52 -4 66 1 76 43 76 l35 0 0 -66z"/>
<path d="M3870 4905 c0 -12 15 -15 75 -15 l75 0 0 -125 0 -125 -85 0 c-50 0
-85 -4 -85 -10 0 -6 68 -10 185 -10 117 0 185 4 185 10 0 6 -35 10 -85 10
l-85 0 0 125 0 125 75 0 c60 0 75 3 75 15 0 13 -25 15 -165 15 -140 0 -165 -2
-165 -15z"/>
<path d="M5417 4873 c-7 -6 97 -73 114 -73 5 0 9 4 9 9 0 12 -116 72 -123 64z"/>
<path d="M5261 4839 c-39 -21 -49 -30 -37 -35 15 -6 99 36 111 56 10 17 -17 9
-74 -21z"/>
<path d="M5773 4793 c-3 -10 -12 -33 -20 -52 -19 -48 0 -61 20 -14 24 58 30
83 17 83 -6 0 -13 -8 -17 -17z"/>
<path d="M5974 4788 c3 -13 9 -40 12 -60 4 -23 12 -38 20 -38 15 0 13 19 -8
88 -11 36 -34 45 -24 10z"/>
<path d="M5330 4780 c0 -18 -7 -20 -55 -20 -30 0 -55 -4 -55 -10 0 -5 25 -10
55 -10 62 0 66 -7 35 -58 -13 -21 -39 -42 -72 -57 -43 -20 -49 -25 -33 -31 29
-11 107 36 127 77 9 19 19 42 22 52 4 13 16 17 50 17 l45 0 3 -72 3 -73 48 -3
c43 -3 48 -1 57 23 14 37 12 55 -4 55 -9 0 -16 -12 -18 -27 -3 -24 -8 -28 -33
-28 l-30 0 -3 73 -3 72 -55 0 c-47 0 -57 3 -61 20 -3 11 -9 20 -14 20 -5 0 -9
-9 -9 -20z"/>
<path d="M4450 4780 c0 -5 20 -10 45 -10 45 0 45 0 45 -35 0 -34 -1 -35 -40
-35 -22 0 -40 -4 -40 -10 0 -5 18 -10 40 -10 38 0 40 -2 40 -30 0 -30 -1 -30
-55 -30 -42 0 -55 -3 -55 -15 0 -12 20 -15 120 -15 100 0 120 3 120 15 0 11
-12 15 -50 15 -49 0 -50 1 -50 30 0 28 2 30 40 30 22 0 40 5 40 10 0 6 -18 10
-40 10 -39 0 -40 1 -40 35 0 35 0 35 45 35 25 0 45 5 45 10 0 6 -42 10 -105
10 -63 0 -105 -4 -105 -10z"/>
<path d="M6100 4740 c0 -5 28 -10 62 -12 l61 -3 -52 -57 c-51 -56 -59 -80 -23
-72 9 2 66 8 127 13 91 8 112 7 126 -5 19 -17 29 -18 29 -1 -1 20 -76 97 -96
97 -15 0 -13 -5 10 -29 l27 -28 -47 -7 c-26 -3 -69 -6 -96 -6 l-50 0 42 50 42
50 89 0 c53 0 89 4 89 10 0 6 -63 10 -170 10 -101 0 -170 -4 -170 -10z"/>
</g>
</svg>
