<?xml version="1.0" standalone="no"?>
<!DOCTYPE svg PUBLIC "-//W3C//DTD SVG 20010904//EN"
 "http://www.w3.org/TR/2001/REC-SVG-20010904/DTD/svg10.dtd">
<svg version="1.0" xmlns="http://www.w3.org/2000/svg"
 width="480.000000pt" height="480.000000pt" viewBox="0 0 480.000000 480.000000"
 preserveAspectRatio="xMidYMid meet">

<g transform="translate(0.000000,480.000000) scale(0.100000,-0.100000)"
fill="#000000" stroke="none">
<path d="M0 2400 l0 -2400 2400 0 2400 0 0 2400 0 2400 -2400 0 -2400 0 0
-2400z m1445 1594 c86 -23 235 -113 235 -141 0 -5 8 -18 18 -29 32 -34 98
-172 105 -219 1 -11 5 -24 8 -30 11 -19 10 -130 -1 -179 -20 -88 -97 -233
-159 -299 -20 -21 -69 -56 -108 -78 -66 -36 -82 -40 -166 -45 -196 -12 -360
39 -453 141 -66 72 -74 82 -74 95 0 6 -12 30 -28 53 -41 63 -60 110 -68 169
-4 29 -8 60 -9 68 -1 8 6 36 16 61 9 25 29 80 43 123 15 43 36 97 49 120 31
59 98 136 118 136 9 0 22 7 29 15 7 8 24 15 39 15 14 1 44 8 66 17 82 32 237
36 340 7z m1085 -758 c7 -9 17 -16 22 -16 6 0 25 -7 43 -16 50 -23 60 -74 30
-148 -6 -14 -4 -17 11 -14 23 4 44 43 44 83 0 93 266 118 294 27 15 -45 -17
-74 -109 -99 -11 -3 -51 -20 -88 -39 -38 -19 -73 -34 -78 -34 -5 0 -68 -29
-140 -64 -152 -75 -194 -86 -229 -58 -21 17 -24 27 -22 75 2 48 -1 56 -18 62
-27 8 -60 53 -60 80 0 29 25 78 55 107 14 13 25 29 25 36 0 17 11 15 25 -5 12
-16 56 -20 95 -8 11 4 27 20 35 36 13 24 19 28 34 20 10 -6 23 -17 31 -25z"/>
<path d="M2397 3163 c-4 -3 -7 -12 -7 -20 0 -15 26 -18 34 -4 7 11 -18 33 -27
24z"/>
<path d="M2295 3129 c-10 -15 1 -23 20 -15 9 3 13 10 10 16 -8 13 -22 13 -30
-1z"/>
<path d="M2396 3102 c-3 -5 -23 -13 -43 -17 -48 -9 -56 -14 -44 -29 6 -6 28
-10 55 -8 35 3 47 9 52 24 7 22 -9 47 -20 30z"/>
</g>
</svg>
